<svg width="25" xmlns="http://www.w3.org/2000/svg" height="25" fill="none"><g style="fill: rgb(0, 0, 0);"><path d="M11.458,4.167L11.458,1.042L13.542,1.042L13.542,4.167L11.458,4.167ZZM11.458,23.958L11.458,20.833L13.542,20.833L13.542,23.958L11.458,23.958ZZM20.833,13.542L20.833,11.458L23.958,11.458L23.958,13.542L20.833,13.542ZZM1.042,13.542L1.042,11.458L4.167,11.458L4.167,13.542L1.042,13.542ZZM19.479,6.979L18.021,5.521L19.844,3.646L21.354,5.156L19.479,6.979ZZM5.156,21.354L3.646,19.844L5.521,18.021L6.979,19.479L5.156,21.354ZZM19.844,21.354L18.021,19.479L19.479,18.021L21.354,19.844L19.844,21.354ZZM5.521,6.979L3.646,5.156L5.156,3.646L6.979,5.521L5.521,6.979ZZM12.500,18.750C10.764,18.750,9.288,18.142,8.073,16.927C6.858,15.712,6.250,14.236,6.250,12.500C6.250,10.764,6.858,9.288,8.073,8.073C9.288,6.858,10.764,6.250,12.500,6.250C14.236,6.250,15.712,6.858,16.927,8.073C18.142,9.288,18.750,10.764,18.750,12.500C18.750,14.236,18.142,15.712,16.927,16.927C15.712,18.142,14.236,18.750,12.500,18.750ZZM12.500,16.667C13.663,16.667,14.648,16.263,15.456,15.456C16.263,14.648,16.667,13.663,16.667,12.500C16.667,11.337,16.263,10.352,15.456,9.544C14.648,8.737,13.663,8.333,12.500,8.333C11.337,8.333,10.352,8.737,9.544,9.544C8.737,10.352,8.333,11.337,8.333,12.500C8.333,13.663,8.737,14.648,9.544,15.456C10.352,16.263,11.337,16.667,12.500,16.667ZZM12.500,12.500Z" style="fill: rgb(189, 160, 140); fill-opacity: 1;" class="fills"/></g></svg>